<?xml version="1.0" encoding="UTF-8" standalone="no"?>
<!DOCTYPE svg PUBLIC "-//W3C//DTD SVG 1.1//EN" "http://www.w3.org/Graphics/SVG/1.1/DTD/svg11.dtd">
<svg width="100%" height="100%" viewBox="0 0 256 256" version="1.1" xmlns="http://www.w3.org/2000/svg" xmlns:xlink="http://www.w3.org/1999/xlink" xml:space="preserve" xmlns:serif="http://www.serif.com/" style="fill-rule:evenodd;clip-rule:evenodd;stroke-linejoin:round;stroke-miterlimit:2;">
    <g transform="matrix(2.8008,0,0,2.8008,1.964,1.964)">
        <g>
            <path d="M52.747,50.205C49.287,50.205 46.034,48.858 43.588,46.412C38.538,41.361 38.538,33.144 43.588,28.094C46.034,25.647 49.287,24.3 52.747,24.3C56.207,24.3 59.46,25.647 61.906,28.094C64.353,30.54 65.7,33.793 65.7,37.253C65.7,40.713 64.353,43.966 61.906,46.412C59.46,48.858 56.207,50.205 52.747,50.205ZM52.747,28.302C50.356,28.302 48.108,29.233 46.417,30.924C42.926,34.414 42.927,40.093 46.417,43.584C48.107,45.274 50.355,46.205 52.747,46.205C55.138,46.205 57.386,45.274 59.077,43.584C60.768,41.893 61.699,39.645 61.699,37.254C61.699,34.863 60.768,32.615 59.077,30.924C57.386,29.232 55.138,28.302 52.747,28.302ZM45.002,29.509L45.012,29.509L45.002,29.509Z" style="fill:rgb(255,246,252);fill-rule:nonzero;"/>
            <path d="M84.279,35.32C90.263,21.962 91.617,10.145 87.993,2.901C87.799,2.514 87.485,2.201 87.098,2.007C79.851,-1.618 68.035,-0.264 54.68,5.721C54.664,5.728 54.652,5.74 54.636,5.747C48.215,8.628 41.951,12.358 36.527,16.467L24.562,16.758C22.982,16.797 21.433,17.253 20.084,18.078L2.952,28.554C1.223,29.611 0.164,31.451 0.12,33.477C0.076,35.503 1.053,37.388 2.734,38.52L14.998,46.774L12.967,56.561C12.83,57.221 13.035,57.905 13.512,58.382L31.619,76.488C31.998,76.867 32.508,77.074 33.033,77.074C33.168,77.074 33.304,77.06 33.439,77.032L43.216,75.004L51.451,87.239C52.558,88.883 54.385,89.854 56.361,89.854C56.405,89.854 56.449,89.853 56.493,89.852C58.519,89.808 60.359,88.749 61.416,87.02L71.891,69.888C72.715,68.54 73.173,66.992 73.211,65.409L73.501,53.514C77.621,48.081 81.362,41.804 84.25,35.368C84.259,35.351 84.272,35.337 84.279,35.32ZM84.698,5.303C87.152,11 86.068,20.399 81.775,30.996L59.004,8.225C69.602,3.932 79,2.848 84.698,5.303ZM4.12,33.565C4.135,32.898 4.469,32.316 5.039,31.968L22.171,21.492C22.921,21.033 23.782,20.78 24.66,20.758L31.508,20.591C30.616,21.392 29.759,22.201 28.945,23.015C23.25,28.71 18.847,35.397 16.213,42.355C16.172,42.463 16.138,42.581 16.099,42.691L4.968,35.2C4.415,34.828 4.106,34.231 4.12,33.565ZM33.685,72.895L17.105,56.317L18.434,49.909L40.091,71.566L33.685,72.895ZM69.213,65.311C69.191,66.19 68.938,67.052 68.479,67.801L58.004,84.933C57.655,85.502 57.073,85.837 56.406,85.851C55.772,85.891 55.144,85.557 54.771,85.003L47.301,73.904C47.414,73.863 47.534,73.829 47.646,73.787C54.602,71.155 61.289,66.752 66.985,61.056C67.789,60.252 68.588,59.406 69.38,58.525L69.213,65.311ZM64.155,58.227C58.857,63.524 52.658,67.611 46.229,70.045C45.751,70.226 45.255,70.391 44.728,70.543L19.457,45.273C19.61,44.745 19.775,44.248 19.955,43.772C22.39,37.342 26.477,31.143 31.774,25.846C37.792,19.829 46.223,14.083 55.07,9.95L80.052,34.93C75.918,43.779 70.171,52.21 64.155,58.227Z" style="fill:rgb(255,246,252);fill-rule:nonzero;"/>
            <path d="M1.989,90.011C1.477,90.011 0.965,89.816 0.575,89.425C-0.206,88.644 -0.206,87.378 0.575,86.596L17.886,69.285C18.666,68.504 19.934,68.504 20.715,69.285C21.496,70.066 21.496,71.332 20.715,72.114L3.404,89.425C3.014,89.816 2.501,90.011 1.989,90.011Z" style="fill:rgb(255,246,252);fill-rule:nonzero;"/>
            <path d="M2.81,77.773C2.298,77.773 1.786,77.578 1.396,77.187C0.615,76.406 0.615,75.14 1.396,74.358L12.177,63.577C12.957,62.796 14.224,62.796 15.006,63.577C15.787,64.358 15.787,65.624 15.006,66.406L4.225,77.187C3.835,77.577 3.322,77.773 2.81,77.773Z" style="fill:rgb(255,246,252);fill-rule:nonzero;"/>
            <path d="M14.227,89.19C13.715,89.19 13.203,88.995 12.813,88.604C12.032,87.823 12.032,86.557 12.813,85.775L23.594,74.994C24.374,74.213 25.641,74.213 26.423,74.994C27.205,75.775 27.204,77.041 26.423,77.823L15.642,88.604C15.251,88.994 14.739,89.19 14.227,89.19Z" style="fill:rgb(255,246,252);fill-rule:nonzero;"/>
        </g>
    </g>
</svg>
