<?xml version="1.0" encoding="UTF-8" standalone="no"?>
<!DOCTYPE svg PUBLIC "-//W3C//DTD SVG 1.1//EN" "http://www.w3.org/Graphics/SVG/1.1/DTD/svg11.dtd">
<svg width="100%" height="100%" viewBox="0 0 256 256" version="1.1" xmlns="http://www.w3.org/2000/svg" xmlns:xlink="http://www.w3.org/1999/xlink" xml:space="preserve" xmlns:serif="http://www.serif.com/" style="fill-rule:evenodd;clip-rule:evenodd;stroke-linejoin:round;stroke-miterlimit:2;">
    <g>
        <path d="M7.535,254.067C6.101,254.067 4.667,253.521 3.574,252.426C1.387,250.238 1.387,246.692 3.574,244.502L52.059,196.017C54.244,193.83 57.795,193.83 59.983,196.017C62.17,198.205 62.17,201.751 59.983,203.941L11.498,252.426C10.406,253.521 8.969,254.067 7.535,254.067ZM41.811,251.767C40.377,251.767 38.943,251.221 37.851,250.126C35.663,247.939 35.663,244.393 37.851,242.203L68.046,212.007C70.231,209.82 73.779,209.82 75.97,212.007C78.16,214.195 78.157,217.74 75.97,219.931L45.774,250.126C44.679,251.218 43.245,251.767 41.811,251.767ZM148.453,249.091L171.214,249.091C172.272,248.104 173.201,246.961 173.978,245.69L203.316,197.706C205.624,193.931 206.907,189.595 207.013,185.162L207.826,151.846C219.365,136.629 229.843,119.049 237.931,101.023C237.957,100.975 237.993,100.936 238.013,100.888C247.323,80.105 252.631,60.654 253.757,43.987L253.757,31.268C253.204,23.232 251.421,16.099 248.415,10.089C247.871,9.005 246.992,8.129 245.908,7.585C225.611,-2.568 192.516,1.225 155.112,17.987C155.067,18.007 155.033,18.041 154.989,18.06C137.005,26.129 119.46,36.576 104.269,48.085L70.757,48.9C66.332,49.009 61.994,50.286 58.215,52.597L10.232,81.938C5.389,84.898 2.423,90.052 2.3,95.726C2.177,101.401 4.913,106.68 9.621,109.851L43.97,132.969L38.282,160.38C37.898,162.229 38.472,164.144 39.808,165.48L90.522,216.192C91.584,217.253 93.012,217.833 94.483,217.833C94.861,217.833 95.242,217.794 95.62,217.715L123.003,212.035L146.068,246.303C146.763,247.335 147.559,248.272 148.453,249.091ZM9.834,219.791C8.4,219.791 6.966,219.244 5.874,218.149C3.686,215.962 3.686,212.416 5.874,210.226L36.069,180.03C38.254,177.843 41.803,177.843 43.993,180.03C46.18,182.218 46.18,185.764 43.993,187.954L13.797,218.149C12.705,219.242 11.268,219.791 9.834,219.791ZM149.698,142.578C140.007,142.578 130.896,138.805 124.045,131.955C109.901,117.808 109.901,94.794 124.045,80.65C130.896,73.796 140.007,70.023 149.698,70.023C159.389,70.023 168.5,73.796 175.35,80.65C182.204,87.5 185.977,96.611 185.977,106.302C185.977,115.993 182.204,125.104 175.35,131.955C168.5,138.805 159.389,142.578 149.698,142.578Z" style="fill:rgb(255,246,252);"/>
    </g>
</svg>
